<?xml version="1.0" encoding="UTF-8" standalone="no"?>
<!-- Created with Inkscape (http://www.inkscape.org/) -->
<svg xmlns:inkscape="http://www.inkscape.org/namespaces/inkscape" xmlns:rdf="http://www.w3.org/1999/02/22-rdf-syntax-ns#" xmlns="http://www.w3.org/2000/svg" xmlns:xlink="http://www.w3.org/1999/xlink" xmlns:ns1="http://sozi.baierouge.fr" xmlns:cc="http://creativecommons.org/ns#" xmlns:sodipodi="http://sodipodi.sourceforge.net/DTD/sodipodi-0.dtd" xmlns:dc="http://purl.org/dc/elements/1.1/" id="svg2" xml:space="preserve" viewBox="0 0 44.3 86.41" version="1.1" inkscape:version="0.91 r13725">
  <defs id="defs6">
    <clipPath id="clipPath18">
      <path id="path20" d="m26.16 15.769c-0.215-0.188-0.371-0.309-0.48-0.36-0.293-0.187-0.707-0.226-1.239-0.121-0.773 0.133-1.203 0.199-1.281 0.199l-2.519-0.078c-1.496 0-2.52 0.094-3.082 0.278-0.344 0.109-0.813 0.187-1.399 0.242-0.773 0.078-1.254 0.133-1.441 0.16-0.184 0.051-0.625 0.094-1.321 0.117-0.531 0.028-0.957 0.121-1.277 0.281-0.293 0.188-0.496 0.293-0.601 0.321-0.293 0.027-0.52 0.082-0.68 0.16-0.426 0.215-0.735 0.453-0.918 0.719-0.055 0.214-0.121 0.375-0.203 0.48-0.239 0.188-0.399 0.32-0.481 0.402-0.316 0.426-0.543 0.704-0.679 0.84h0.082c0.078-0.187 0.398-0.453 0.961-0.8 0.132-0.161 0.41-0.375 0.839-0.641 0.079-0.055 0.305-0.332 0.68-0.84 0.133-0.16 0.492-0.305 1.078-0.441l1.403-0.239c0.343-0.027 0.839-0.121 1.476-0.281l1.723-0.238c0.426-0.106 1.078-0.16 1.961-0.16 0.398 0 1.027-0.016 1.879-0.039 0.746-0.028 1.347 0 1.8 0.078 0.586 0.133 1.438 0.121 2.559-0.039 0.215-0.028 0.359-0.016 0.441 0.039 0.051 0.027 0.161 0.121 0.321 0.281 0.16 0.184 0.586 0.371 1.277 0.559 0.293 0.054 0.75 0.16 1.359 0.32 0.536 0.16 0.934 0.387 1.204 0.68 0.183 0.214 0.332 0.535 0.437 0.961 0.242 0.292 0.387 0.519 0.441 0.679l-0.039-0.64c-0.082-0.559-0.386-1.039-0.921-1.442-0.161-0.105-0.665-0.383-1.52-0.84-0.16-0.078-0.387-0.132-0.68-0.16-0.32-0.023-0.547-0.066-0.679-0.117-0.133-0.055-0.293-0.16-0.481-0.32z" inkscape:connector-curvature="0"/>
    </clipPath>
    <clipPath id="clipPath26">
      <path id="path28" d="m-68.815-153.41h28.794v14.015h-28.794v-14.015z" inkscape:connector-curvature="0"/>
    </clipPath>
    <radialGradient id="radialGradient30" gradientUnits="userSpaceOnUse" cy="-140.94" cx="-54.981" r="21.813">
      <stop id="stop32" style="stop-color:#ffffff;stop-opacity:.74510" offset="0"/>
      <stop id="stop34" style="stop-color:#ffffff;stop-opacity:.61961" offset=".1608"/>
      <stop id="stop36" style="stop-color:#ffffff;stop-opacity:.35689" offset=".46670"/>
      <stop id="stop38" style="stop-color:#ffffff;stop-opacity:.23140" offset=".71760"/>
      <stop id="stop40" style="stop-color:#ffffff;stop-opacity:.15290" offset=".87840"/>
      <stop id="stop42" style="stop-color:#ffffff;stop-opacity:.15290" offset="1"/>
    </radialGradient>
    <mask id="mask44">
      <g id="g46">
        <g id="g48" clip-path="url(#clipPath26)">
          <path id="path50" style="fill:url(#radialGradient30)" d="m-68.815-153.41h28.794v14.015h-28.794v-14.015z" inkscape:connector-curvature="0"/>
        </g>
      </g>
    </mask>
    <radialGradient id="radialGradient54" gradientUnits="userSpaceOnUse" cy="-140.94" cx="-54.981" r="21.813">
      <stop id="stop56" style="stop-color:#fff2cd" offset="0"/>
      <stop id="stop58" style="stop-color:#f5e6b7" offset=".1608"/>
      <stop id="stop60" style="stop-color:#e6d493" offset=".46670"/>
      <stop id="stop62" style="stop-color:#ddc87c" offset=".71760"/>
      <stop id="stop64" style="stop-color:#dac474" offset=".87840"/>
      <stop id="stop66" style="stop-color:#dac474" offset="1"/>
    </radialGradient>
    <clipPath id="clipPath74">
      <path id="path76" d="m29.559 20.366 0.363-0.437 0.476-0.32c0.11-0.133 0.094-0.309-0.039-0.52-0.16-0.215-0.265-0.375-0.32-0.48-0.105-0.426-0.25-0.747-0.437-0.961-0.27-0.293-0.668-0.52-1.204-0.68-0.613-0.16-1.066-0.266-1.359-0.32-0.691-0.188-1.117-0.372-1.277-0.559-0.16-0.16-0.27-0.254-0.321-0.281-0.082-0.055-0.226-0.067-0.441-0.039-1.121 0.16-1.973 0.172-2.559 0.039-0.453-0.078-1.054-0.106-1.8-0.078-0.852 0.023-1.481 0.039-1.879 0.039-0.883 0-1.535 0.05-1.961 0.16l-1.723 0.238c-0.637 0.16-1.133 0.254-1.476 0.281l-1.403 0.239c-0.586 0.136-0.945 0.281-1.078 0.441-0.375 0.508-0.601 0.785-0.68 0.84-0.429 0.266-0.707 0.48-0.839 0.641-0.563 0.347-0.883 0.613-0.961 0.8 0.371 0.106 0.812 0.426 1.32 0.957 0.504 0.563 0.934 0.895 1.277 1v0.082c0.297 0.055 0.789 0.282 1.481 0.68 0.562 0.348 1.16 0.559 1.801 0.641 0.668 0.05 1.679 0.226 3.039 0.519h2.562c0.559-0.027 1.371-0.133 2.438-0.32 0.855-0.055 1.574-0.149 2.16-0.281 0.586-0.184 1.293-0.453 2.121-0.797 1.015-0.43 1.668-0.735 1.961-0.922 0.238-0.133 0.492-0.332 0.758-0.602z" inkscape:connector-curvature="0"/>
    </clipPath>
    <clipPath id="clipPath82">
      <path id="path84" d="m-538.51-161.44h29.485v24.157h-29.485v-24.157z" inkscape:connector-curvature="0"/>
    </clipPath>
    <radialGradient id="radialGradient86" gradientUnits="userSpaceOnUse" cy="-140.38" cx="-523.27" r="21.738">
      <stop id="stop88" style="stop-color:#ffffff;stop-opacity:.50590" offset="0"/>
      <stop id="stop90" style="stop-color:#ffffff;stop-opacity:0" offset="1"/>
    </radialGradient>
    <mask id="mask92">
      <g id="g94">
        <g id="g96" clip-path="url(#clipPath82)">
          <path id="path98" style="fill:url(#radialGradient86)" d="m-538.51-161.44h29.485v24.157h-29.485v-24.157z" inkscape:connector-curvature="0"/>
        </g>
      </g>
    </mask>
    <radialGradient id="radialGradient102" gradientUnits="userSpaceOnUse" cy="-140.38" cx="-523.27" r="21.738">
      <stop id="stop104" style="stop-color:#352314" offset="0"/>
      <stop id="stop106" style="stop-color:#403023" offset="1"/>
    </radialGradient>
    <clipPath id="clipPath114">
      <path id="path116" d="m12.281 21.89 0.278-1.801c0.121-1.43 0.187-2.371 0.203-2.82v3.699c0.027 0.426 0.16 0.894 0.398 1.398 0.399 0.215 0.84 0.336 1.32 0.364-0.027-0.082-0.066-0.43-0.121-1.043-0.027-0.133-0.105-0.36-0.238-0.68-0.109-0.293-0.16-0.531-0.16-0.719-0.055-0.746-0.055-1.304 0-1.679l0.199-1.2c0-0.375 0.039-0.734 0.121-1.082l-2.082 0.36-0.238 0.082-0.199 0.359c-0.801 1.734-1.067 3.106-0.801 4.121l0.277 0.117v0.082c0.348 0.078 0.696 0.227 1.043 0.442z" inkscape:connector-curvature="0"/>
    </clipPath>
    <clipPath id="clipPath122">
      <path id="path124" d="m-7-79.6h6.25v8.75h-6.25v-8.75z" inkscape:connector-curvature="0"/>
    </clipPath>
    <radialGradient id="radialGradient126" gradientUnits="userSpaceOnUse" cy="-75.15" cx="-7.75" r="12.3">
      <stop id="stop128" style="stop-color:#ffffff;stop-opacity:.29799" offset="0"/>
      <stop id="stop130" style="stop-color:#ffffff;stop-opacity:0" offset=".87840"/>
      <stop id="stop132" style="stop-color:#ffffff;stop-opacity:0" offset="1"/>
    </radialGradient>
    <mask id="mask134">
      <g id="g136">
        <g id="g138" clip-path="url(#clipPath122)">
          <path id="path140" style="fill:url(#radialGradient126)" d="m-7-79.6h6.25v8.75h-6.25v-8.75z" inkscape:connector-curvature="0"/>
        </g>
      </g>
    </mask>
    <radialGradient id="radialGradient144" gradientUnits="userSpaceOnUse" cy="-75.15" cx="-7.75" r="12.3">
      <stop id="stop146" style="stop-color:#000000" offset="0"/>
      <stop id="stop148" style="stop-color:#000000" offset="1"/>
    </radialGradient>
    <clipPath id="clipPath156">
      <path id="path158" d="m21.52 20.007c0.48-0.238 0.878-0.184 1.199 0.16-0.051-0.32-0.145-0.531-0.278-0.641-0.027 0-0.253-0.078-0.679-0.238-0.137-0.828 0-1.574 0.398-2.238l0.602-1.203-0.321-0.039c-0.453-0.078-1.054-0.106-1.8-0.078-0.852 0.023-1.481 0.039-1.879 0.039l-1.16 0.039c-0.028 0.242-0.176 0.707-0.442 1.398-0.32 0.961-0.492 1.707-0.519 2.242l-0.082 3.641 1 0.199h2.562c0.266 0 0.664-0.054 1.199-0.16-0.105-0.695-0.16-1.238-0.16-1.641 0-0.214-0.015-0.492-0.039-0.839 0.024-0.293 0.16-0.508 0.399-0.641z" inkscape:connector-curvature="0"/>
    </clipPath>
    <clipPath id="clipPath164">
      <path id="path166" d="m0.5-80.05h8.75v11.25h-8.75v-11.25z" inkscape:connector-curvature="0"/>
    </clipPath>
    <radialGradient id="radialGradient168" gradientUnits="userSpaceOnUse" cy="-74.75" cx="5.1997" r="11.062">
      <stop id="stop170" style="stop-color:#ffffff;stop-opacity:.20780" offset="0"/>
      <stop id="stop172" style="stop-color:#ffffff;stop-opacity:0" offset=".87840"/>
      <stop id="stop174" style="stop-color:#ffffff;stop-opacity:0" offset="1"/>
    </radialGradient>
    <mask id="mask176">
      <g id="g178">
        <g id="g180" clip-path="url(#clipPath164)">
          <path id="path182" style="fill:url(#radialGradient168)" d="m0.5-80.05h8.75v11.25h-8.75v-11.25z" inkscape:connector-curvature="0"/>
        </g>
      </g>
    </mask>
    <radialGradient id="radialGradient186" gradientUnits="userSpaceOnUse" cy="-74.75" cx="5.1997" r="11.062">
      <stop id="stop188" style="stop-color:#000000" offset="0"/>
      <stop id="stop190" style="stop-color:#000000" offset="1"/>
    </radialGradient>
    <clipPath id="clipPath198">
      <path id="path200" d="m24.84 22.648-0.078-5.321c-0.16-0.879-0.254-1.386-0.282-1.519l-0.921 0.082 0.082 1c0 0.051 0.039 0.558 0.121 1.519 0 0.184-0.067 0.426-0.203 0.719-0.133 0.375-0.211 0.625-0.239 0.762 0.028 0.719 0.039 1.25 0.039 1.597 0 0.266-0.011 0.497-0.039 0.68-0.027 0.348-0.082 0.602-0.16 0.762 0.586-0.055 1.106-0.133 1.559-0.242l0.121-0.039z" inkscape:connector-curvature="0"/>
    </clipPath>
    <clipPath id="clipPath206">
      <path id="path208" d="m9.25-80.2h2.5v10h-2.5v-10z" inkscape:connector-curvature="0"/>
    </clipPath>
    <radialGradient id="radialGradient210" gradientUnits="userSpaceOnUse" cy="-75.45" cx="10.45" r="7.5">
      <stop id="stop212" style="stop-color:#ffffff;stop-opacity:.20780" offset="0"/>
      <stop id="stop214" style="stop-color:#ffffff;stop-opacity:0" offset=".87840"/>
      <stop id="stop216" style="stop-color:#ffffff;stop-opacity:0" offset="1"/>
    </radialGradient>
    <mask id="mask218">
      <g id="g220">
        <g id="g222" clip-path="url(#clipPath206)">
          <path id="path224" style="fill:url(#radialGradient210)" d="m9.25-80.2h2.5v10h-2.5v-10z" inkscape:connector-curvature="0"/>
        </g>
      </g>
    </mask>
    <radialGradient id="radialGradient228" gradientUnits="userSpaceOnUse" cy="-75.45" cx="10.45" r="7.5">
      <stop id="stop230" style="stop-color:#000000" offset="0"/>
      <stop id="stop232" style="stop-color:#000000" offset="1"/>
    </radialGradient>
    <clipPath id="clipPath240">
      <path id="path242" d="m26.559 22.007 1.043-0.438-0.723-2.441c-0.078 0.188-0.16 0.773-0.238 1.762-0.055 0.238-0.082 0.613-0.082 1.117z" inkscape:connector-curvature="0"/>
    </clipPath>
    <clipPath id="clipPath248">
      <path id="path250" d="m13-73.15h2.5v3.75h-2.5v-3.75z" inkscape:connector-curvature="0"/>
    </clipPath>
    <radialGradient id="radialGradient252" gradientUnits="userSpaceOnUse" cy="-72.55" cx="15" r="4.2625">
      <stop id="stop254" style="stop-color:#ffffff;stop-opacity:.20780" offset="0"/>
      <stop id="stop256" style="stop-color:#ffffff;stop-opacity:0" offset=".87840"/>
      <stop id="stop258" style="stop-color:#ffffff;stop-opacity:0" offset="1"/>
    </radialGradient>
    <mask id="mask260">
      <g id="g262">
        <g id="g264" clip-path="url(#clipPath248)">
          <path id="path266" style="fill:url(#radialGradient252)" d="m13-73.15h2.5v3.75h-2.5v-3.75z" inkscape:connector-curvature="0"/>
        </g>
      </g>
    </mask>
    <radialGradient id="radialGradient270" gradientUnits="userSpaceOnUse" cy="-72.55" cx="15" r="4.2625">
      <stop id="stop272" style="stop-color:#000000" offset="0"/>
      <stop id="stop274" style="stop-color:#000000" offset="1"/>
    </radialGradient>
    <clipPath id="clipPath282">
      <path id="path284" d="m29.801 20.089 0.121-0.16 0.476-0.32c0.11-0.133 0.094-0.309-0.039-0.52-0.16-0.215-0.265-0.375-0.32-0.48-0.105-0.426-0.25-0.747-0.437-0.961-0.27-0.293-0.59-0.493-0.961-0.598v0.117c-0.028 0.402-0.039 0.707-0.039 0.922-0.028 0.398-0.016 0.707 0.039 0.918l0.078 0.242v-1.082l0.043 0.199c0.078 0.188 0.265 0.403 0.558 0.641 0.188 0.242 0.348 0.602 0.481 1.082z" inkscape:connector-curvature="0"/>
    </clipPath>
    <clipPath id="clipPath290">
      <path id="path292" d="m15.5-79.95h3.75v5h-3.75v-5z" inkscape:connector-curvature="0"/>
    </clipPath>
    <radialGradient id="radialGradient294" gradientUnits="userSpaceOnUse" cy="-77.2" cx="18.6" r="9.5375">
      <stop id="stop296" style="stop-color:#ffffff;stop-opacity:.20780" offset="0"/>
      <stop id="stop298" style="stop-color:#ffffff;stop-opacity:0" offset=".87840"/>
      <stop id="stop300" style="stop-color:#ffffff;stop-opacity:0" offset="1"/>
    </radialGradient>
    <mask id="mask302">
      <g id="g304">
        <g id="g306" clip-path="url(#clipPath290)">
          <path id="path308" style="fill:url(#radialGradient294)" d="m15.5-79.95h3.75v5h-3.75v-5z" inkscape:connector-curvature="0"/>
        </g>
      </g>
    </mask>
    <radialGradient id="radialGradient312" gradientUnits="userSpaceOnUse" cy="-77.2" cx="18.6" r="9.5375">
      <stop id="stop314" style="stop-color:#000000" offset="0"/>
      <stop id="stop316" style="stop-color:#000000" offset="1"/>
    </radialGradient>
    <clipPath id="clipPath324">
      <path id="path326" d="m29.359 20.569 0.442-0.48c-0.133-0.48-0.293-0.84-0.481-1.082-0.293-0.238-0.48-0.453-0.558-0.641l-0.043-0.199v1.082l0.32 0.559c0.082 0.105 0.121 0.215 0.121 0.32 0.078 0.078 0.145 0.227 0.199 0.441z" inkscape:connector-curvature="0"/>
    </clipPath>
    <clipPath id="clipPath332">
      <path id="path334" d="m15.5-81.2h2.5v3.75h-2.5v-3.75z" inkscape:connector-curvature="0"/>
    </clipPath>
    <mask id="mask344">
      <g id="g346">
        <g id="g348" clip-path="url(#clipPath332)">
          <path id="path350" style="fill:url(#radialGradient294)" d="m15.5-81.2h2.5v3.75h-2.5v-3.75z" inkscape:connector-curvature="0"/>
        </g>
      </g>
    </mask>
    <clipPath id="clipPath366">
      <path id="path368" d="m29.359 20.569 0.442-0.48c-0.133-0.48-0.293-0.84-0.481-1.082-0.293-0.238-0.48-0.453-0.558-0.641l-0.043-0.199v1.082l0.32 0.559c0.082 0.105 0.121 0.215 0.121 0.32 0.078 0.078 0.145 0.227 0.199 0.441z" inkscape:connector-curvature="0"/>
    </clipPath>
    <clipPath id="clipPath374">
      <path id="path376" d="m15.5-78h2.5v3.75h-2.5v-3.75z" inkscape:connector-curvature="0"/>
    </clipPath>
    <radialGradient id="radialGradient378" gradientUnits="userSpaceOnUse" cy="-75.6" cx="17.15" r="2.9">
      <stop id="stop380" style="stop-color:#ffffff;stop-opacity:.20780" offset="0"/>
      <stop id="stop382" style="stop-color:#ffffff;stop-opacity:0" offset=".87840"/>
      <stop id="stop384" style="stop-color:#ffffff;stop-opacity:0" offset="1"/>
    </radialGradient>
    <mask id="mask386">
      <g id="g388">
        <g id="g390" clip-path="url(#clipPath374)">
          <path id="path392" style="fill:url(#radialGradient378)" d="m15.5-78h2.5v3.75h-2.5v-3.75z" inkscape:connector-curvature="0"/>
        </g>
      </g>
    </mask>
    <radialGradient id="radialGradient396" gradientUnits="userSpaceOnUse" cy="-75.6" cx="17.15" r="2.9">
      <stop id="stop398" style="stop-color:#000000" offset="0"/>
      <stop id="stop400" style="stop-color:#000000" offset="1"/>
    </radialGradient>
    <clipPath id="clipPath408">
      <path id="path410" d="m10.961 21.249c-0.266-1.015 0-2.387 0.801-4.121l0.199-0.359c-0.375 0.05-0.652 0.172-0.84 0.359-0.375 0.508-0.601 0.785-0.68 0.84-0.429 0.266-0.707 0.48-0.839 0.641-0.563 0.347-0.883 0.613-0.961 0.8 0.371 0.106 0.773 0.387 1.199 0.84 0.508 0.531 0.879 0.867 1.121 1z" inkscape:connector-curvature="0"/>
    </clipPath>
    <clipPath id="clipPath416">
      <path id="path418" d="m-9.5-78.35h5v7.5h-5v-7.5z" inkscape:connector-curvature="0"/>
    </clipPath>
    <mask id="mask428">
      <g id="g430">
        <g id="g432" clip-path="url(#clipPath416)">
          <path id="path434" style="fill:url(#radialGradient126)" d="m-9.5-78.35h5v7.5h-5v-7.5z" inkscape:connector-curvature="0"/>
        </g>
      </g>
    </mask>
    <clipPath id="clipPath450">
      <path id="path452" d="m10.961 21.249c-0.266-1.015 0-2.387 0.801-4.121l0.199-0.359c-0.375 0.05-0.652 0.172-0.84 0.359-0.375 0.508-0.601 0.785-0.68 0.84-0.429 0.266-0.707 0.48-0.839 0.641-0.563 0.347-0.883 0.613-0.961 0.8 0.371 0.106 0.773 0.387 1.199 0.84 0.508 0.531 0.879 0.867 1.121 1z" inkscape:connector-curvature="0"/>
    </clipPath>
    <clipPath id="clipPath458">
      <path id="path460" d="m-9.5-81.85h5v7.5h-5v-7.5z" inkscape:connector-curvature="0"/>
    </clipPath>
    <radialGradient id="radialGradient462" gradientUnits="userSpaceOnUse" cy="-76.9" cx="-8.4502" r="7.3875">
      <stop id="stop464" style="stop-color:#ffffff;stop-opacity:.20780" offset="0"/>
      <stop id="stop466" style="stop-color:#ffffff;stop-opacity:0" offset=".87840"/>
      <stop id="stop468" style="stop-color:#ffffff;stop-opacity:0" offset="1"/>
    </radialGradient>
    <mask id="mask470">
      <g id="g472">
        <g id="g474" clip-path="url(#clipPath458)">
          <path id="path476" style="fill:url(#radialGradient462)" d="m-9.5-81.85h5v7.5h-5v-7.5z" inkscape:connector-curvature="0"/>
        </g>
      </g>
    </mask>
    <radialGradient id="radialGradient480" gradientUnits="userSpaceOnUse" cy="-76.9" cx="-8.4502" r="7.3875">
      <stop id="stop482" style="stop-color:#000000" offset="0"/>
      <stop id="stop484" style="stop-color:#000000" offset="1"/>
    </radialGradient>
    <clipPath id="clipPath492">
      <path id="path494" d="m12.281 21.89 0.879 0.476c-0.238-0.504-0.371-0.972-0.398-1.398v-3.699c-0.016 0.449-0.082 1.39-0.203 2.82l-0.278 1.801z" inkscape:connector-curvature="0"/>
    </clipPath>
    <clipPath id="clipPath500">
      <path id="path502" d="m-4.5-79.6h2.5v7.5h-2.5v-7.5z" inkscape:connector-curvature="0"/>
    </clipPath>
    <mask id="mask512">
      <g id="g514">
        <g id="g516" clip-path="url(#clipPath500)">
          <path id="path518" style="fill:url(#radialGradient126)" d="m-4.5-79.6h2.5v7.5h-2.5v-7.5z" inkscape:connector-curvature="0"/>
        </g>
      </g>
    </mask>
    <clipPath id="clipPath534">
      <path id="path536" d="m12.281 21.89 0.879 0.476c-0.238-0.504-0.371-0.972-0.398-1.398v-3.699c-0.016 0.449-0.082 1.39-0.203 2.82l-0.278 1.801z" inkscape:connector-curvature="0"/>
    </clipPath>
    <clipPath id="clipPath542">
      <path id="path544" d="m-4.5-78.6h2.5v7.5h-2.5v-7.5z" inkscape:connector-curvature="0"/>
    </clipPath>
    <radialGradient id="radialGradient546" gradientUnits="userSpaceOnUse" cy="-74.65" cx="-3.5" r="4.4375">
      <stop id="stop548" style="stop-color:#ffffff;stop-opacity:.20780" offset="0"/>
      <stop id="stop550" style="stop-color:#ffffff;stop-opacity:0" offset=".87840"/>
      <stop id="stop552" style="stop-color:#ffffff;stop-opacity:0" offset="1"/>
    </radialGradient>
    <mask id="mask554">
      <g id="g556">
        <g id="g558" clip-path="url(#clipPath542)">
          <path id="path560" style="fill:url(#radialGradient546)" d="m-4.5-78.6h2.5v7.5h-2.5v-7.5z" inkscape:connector-curvature="0"/>
        </g>
      </g>
    </mask>
    <radialGradient id="radialGradient564" gradientUnits="userSpaceOnUse" cy="-74.65" cx="-3.5" r="4.4375">
      <stop id="stop566" style="stop-color:#000000" offset="0"/>
      <stop id="stop568" style="stop-color:#000000" offset="1"/>
    </radialGradient>
    <clipPath id="clipPath576">
      <path id="path578" d="m26.16 20.89c-0.027-0.188-0.027-0.442 0-0.762-0.027-0.293-0.105-0.535-0.238-0.719-0.137 0.078-0.227 0.2-0.281 0.36-0.106-0.133-0.161-0.43-0.161-0.879l-0.121-0.883c-0.078-0.504-0.281-1.254-0.597-2.238v1.718c0.078 0.586 0.117 1.293 0.117 2.122-0.027 0.96-0.039 1.679-0.039 2.16v0.879l1.68-0.598c-0.215-0.535-0.332-0.922-0.36-1.16z" inkscape:connector-curvature="0"/>
    </clipPath>
    <clipPath id="clipPath584">
      <path id="path586" d="m10.5-79h3.75v10h-3.75v-10z" inkscape:connector-curvature="0"/>
    </clipPath>
    <radialGradient id="radialGradient588" gradientUnits="userSpaceOnUse" cy="-74.85" cx="12.6" r="6.625">
      <stop id="stop590" style="stop-color:#ffffff;stop-opacity:.14510" offset="0"/>
      <stop id="stop592" style="stop-color:#ffffff;stop-opacity:.090196" offset=".2431"/>
      <stop id="stop594" style="stop-color:#ffffff;stop-opacity:.047089" offset=".56470"/>
      <stop id="stop596" style="stop-color:#ffffff;stop-opacity:.0077974" offset=".82350"/>
      <stop id="stop598" style="stop-color:#ffffff;stop-opacity:0" offset=".99220"/>
      <stop id="stop600" style="stop-color:#ffffff;stop-opacity:0" offset="1"/>
    </radialGradient>
    <mask id="mask602">
      <g id="g604">
        <g id="g606" clip-path="url(#clipPath584)">
          <path id="path608" style="fill:url(#radialGradient588)" d="m10.5-79h3.75v10h-3.75v-10z" inkscape:connector-curvature="0"/>
        </g>
      </g>
    </mask>
    <radialGradient id="radialGradient612" gradientUnits="userSpaceOnUse" cy="-74.85" cx="12.6" r="6.625">
      <stop id="stop614" style="stop-color:#ffeed7" offset="0"/>
      <stop id="stop616" style="stop-color:#f3e0b7" offset=".2431"/>
      <stop id="stop618" style="stop-color:#e5d193" offset=".56470"/>
      <stop id="stop620" style="stop-color:#ddc77c" offset=".82350"/>
      <stop id="stop622" style="stop-color:#dac474" offset=".99220"/>
      <stop id="stop624" style="stop-color:#dac474" offset="1"/>
    </radialGradient>
    <clipPath id="clipPath632">
      <path id="path634" d="m24.84 21.769c0-0.481 0.015-1.2 0.039-2.16 0-0.829-0.039-1.536-0.117-2.122l0.078 4.282z" inkscape:connector-curvature="0"/>
    </clipPath>
    <clipPath id="clipPath640">
      <path id="path642" d="m10.5-78.95h1.25v6.25h-1.25v-6.25z" inkscape:connector-curvature="0"/>
    </clipPath>
    <mask id="mask652">
      <g id="g654">
        <g id="g656" clip-path="url(#clipPath640)">
          <path id="path658" style="fill:url(#radialGradient210)" d="m10.5-78.95h1.25v6.25h-1.25v-6.25z" inkscape:connector-curvature="0"/>
        </g>
      </g>
    </mask>
    <clipPath id="clipPath674">
      <path id="path676" d="m24.84 21.769c0-0.481 0.015-1.2 0.039-2.16 0-0.829-0.039-1.536-0.117-2.122l0.078 4.282z" inkscape:connector-curvature="0"/>
    </clipPath>
    <clipPath id="clipPath682">
      <path id="path684" d="m10.5-77.75h1.25v6.25h-1.25v-6.25z" inkscape:connector-curvature="0"/>
    </clipPath>
    <mask id="mask700">
      <g id="g702">
        <g id="g704" clip-path="url(#clipPath682)">
          <path id="path706" style="fill:url(#radialGradient588)" d="m10.5-77.75h1.25v6.25h-1.25v-6.25z" inkscape:connector-curvature="0"/>
        </g>
      </g>
    </mask>
    <clipPath id="clipPath730">
      <path id="path732" d="m27.961 21.448 0.918-0.519c-0.348-0.746-0.531-1.188-0.559-1.32-0.082-0.266-0.132-0.696-0.16-1.282v1.481c-0.133 0.718-0.199 1.265-0.199 1.64z" inkscape:connector-curvature="0"/>
    </clipPath>
    <clipPath id="clipPath738">
      <path id="path740" d="m14.25-77.85h2.5v5h-2.5v-5z" inkscape:connector-curvature="0"/>
    </clipPath>
    <radialGradient id="radialGradient742" gradientUnits="userSpaceOnUse" cy="-74.9" cx="16.15" r="2.4375">
      <stop id="stop744" style="stop-color:#ffffff;stop-opacity:.14510" offset="0"/>
      <stop id="stop746" style="stop-color:#ffffff;stop-opacity:.090196" offset=".2431"/>
      <stop id="stop748" style="stop-color:#ffffff;stop-opacity:.047089" offset=".56470"/>
      <stop id="stop750" style="stop-color:#ffffff;stop-opacity:.0077974" offset=".82350"/>
      <stop id="stop752" style="stop-color:#ffffff;stop-opacity:0" offset=".99220"/>
      <stop id="stop754" style="stop-color:#ffffff;stop-opacity:0" offset="1"/>
    </radialGradient>
    <mask id="mask756">
      <g id="g758">
        <g id="g760" clip-path="url(#clipPath738)">
          <path id="path762" style="fill:url(#radialGradient742)" d="m14.25-77.85h2.5v5h-2.5v-5z" inkscape:connector-curvature="0"/>
        </g>
      </g>
    </mask>
    <radialGradient id="radialGradient766" gradientUnits="userSpaceOnUse" cy="-74.9" cx="16.15" r="2.4375">
      <stop id="stop768" style="stop-color:#ffeed7" offset="0"/>
      <stop id="stop770" style="stop-color:#f3e0b7" offset=".2431"/>
      <stop id="stop772" style="stop-color:#e5d193" offset=".56470"/>
      <stop id="stop774" style="stop-color:#ddc77c" offset=".82350"/>
      <stop id="stop776" style="stop-color:#dac474" offset=".99220"/>
      <stop id="stop778" style="stop-color:#dac474" offset="1"/>
    </radialGradient>
    <clipPath id="clipPath786">
      <path id="path788" d="m14.922 22.808c-0.027-0.348-0.137-0.746-0.32-1.199l-0.442-1.122c0.055 0.508 0.121 0.879 0.199 1.122l0.282 1.16 0.281 0.039z" inkscape:connector-curvature="0"/>
    </clipPath>
    <clipPath id="clipPath794">
      <path id="path796" d="m-2-71.3h1.25v3.75h-1.25v-3.75z" inkscape:connector-curvature="0"/>
    </clipPath>
    <radialGradient id="radialGradient798" gradientUnits="userSpaceOnUse" cy="-71" cx="-1.1499" r="4.4625">
      <stop id="stop800" style="stop-color:#ffffff;stop-opacity:.14510" offset="0"/>
      <stop id="stop802" style="stop-color:#ffffff;stop-opacity:.090196" offset=".2431"/>
      <stop id="stop804" style="stop-color:#ffffff;stop-opacity:.047089" offset=".56470"/>
      <stop id="stop806" style="stop-color:#ffffff;stop-opacity:.0077974" offset=".82350"/>
      <stop id="stop808" style="stop-color:#ffffff;stop-opacity:0" offset=".99220"/>
      <stop id="stop810" style="stop-color:#ffffff;stop-opacity:0" offset="1"/>
    </radialGradient>
    <mask id="mask812">
      <g id="g814">
        <g id="g816" clip-path="url(#clipPath794)">
          <path id="path818" style="fill:url(#radialGradient798)" d="m-2-71.3h1.25v3.75h-1.25v-3.75z" inkscape:connector-curvature="0"/>
        </g>
      </g>
    </mask>
    <radialGradient id="radialGradient822" gradientUnits="userSpaceOnUse" cy="-71" cx="-1.1499" r="4.4625">
      <stop id="stop824" style="stop-color:#ffeed7" offset="0"/>
      <stop id="stop826" style="stop-color:#f3e0b7" offset=".2431"/>
      <stop id="stop828" style="stop-color:#e5d193" offset=".56470"/>
      <stop id="stop830" style="stop-color:#ddc77c" offset=".82350"/>
      <stop id="stop832" style="stop-color:#dac474" offset=".99220"/>
      <stop id="stop834" style="stop-color:#dac474" offset="1"/>
    </radialGradient>
    <clipPath id="clipPath842">
      <path id="path844" d="m14.559 23.089h1.441c-0.055-0.055-0.188-0.082-0.398-0.082-0.243-0.023-0.375-0.039-0.403-0.039l-0.64-0.121c-0.664-0.184-1.094-0.332-1.278-0.438-0.722-0.425-1.16-0.679-1.32-0.761-0.535-0.266-1.027-0.426-1.481-0.481l0.52 0.481c0.16-0.051 0.375-0.012 0.641 0.121 0.132 0.078 0.32 0.215 0.558 0.398 0.242 0.188 0.629 0.414 1.16 0.68 0.243 0.16 0.641 0.242 1.2 0.242z" inkscape:connector-curvature="0"/>
    </clipPath>
    <clipPath id="clipPath850">
      <path id="path852" d="m-7-73.4h7.5v2.5h-7.5v-2.5z" inkscape:connector-curvature="0"/>
    </clipPath>
    <radialGradient id="radialGradient854" gradientUnits="userSpaceOnUse" cy="-72.05" cx="-3.1001" r="4.6125">
      <stop id="stop856" style="stop-color:#ffffff;stop-opacity:.50590" offset="0"/>
      <stop id="stop858" style="stop-color:#ffffff;stop-opacity:.43920" offset=".1608"/>
      <stop id="stop860" style="stop-color:#ffffff;stop-opacity:.29799" offset=".46670"/>
      <stop id="stop862" style="stop-color:#ffffff;stop-opacity:.21180" offset=".71760"/>
      <stop id="stop864" style="stop-color:#ffffff;stop-opacity:.15290" offset=".87840"/>
      <stop id="stop866" style="stop-color:#ffffff;stop-opacity:.15290" offset="1"/>
    </radialGradient>
    <mask id="mask868">
      <g id="g870">
        <g id="g872" clip-path="url(#clipPath850)">
          <path id="path874" style="fill:url(#radialGradient854)" d="m-7-73.4h7.5v2.5h-7.5v-2.5z" inkscape:connector-curvature="0"/>
        </g>
      </g>
    </mask>
    <radialGradient id="radialGradient878" gradientUnits="userSpaceOnUse" cy="-72.05" cx="-3.1001" r="4.6125">
      <stop id="stop880" style="stop-color:#fff2cd" offset="0"/>
      <stop id="stop882" style="stop-color:#f5e6b7" offset=".1608"/>
      <stop id="stop884" style="stop-color:#e6d493" offset=".46670"/>
      <stop id="stop886" style="stop-color:#ddc87c" offset=".71760"/>
      <stop id="stop888" style="stop-color:#dac474" offset=".87840"/>
      <stop id="stop890" style="stop-color:#dac474" offset="1"/>
    </radialGradient>
    <clipPath id="clipPath898">
      <path id="path900" d="m29.281 21.05 0.438-0.883c-0.184 0.227-0.531 0.469-1.039 0.723l-1.481 0.758c-0.664 0.214-1.144 0.425-1.437 0.64-0.395 0.305-0.875 0.496-1.442 0.578 0.801-0.062 1.469-0.203 2-0.418 0.293-0.132 0.735-0.32 1.321-0.558 0.16-0.137 0.437-0.27 0.839-0.403 0.508-0.293 0.774-0.437 0.801-0.437z" inkscape:connector-curvature="0"/>
    </clipPath>
    <clipPath id="clipPath906">
      <path id="path908" d="m10.5-75.5h7.5v3.75h-7.5v-3.75z" inkscape:connector-curvature="0"/>
    </clipPath>
    <radialGradient id="radialGradient910" gradientUnits="userSpaceOnUse" cy="-73.1" cx="13.65" r="5.575">
      <stop id="stop912" style="stop-color:#ffffff;stop-opacity:.50590" offset="0"/>
      <stop id="stop914" style="stop-color:#ffffff;stop-opacity:.43920" offset=".1608"/>
      <stop id="stop916" style="stop-color:#ffffff;stop-opacity:.29799" offset=".46670"/>
      <stop id="stop918" style="stop-color:#ffffff;stop-opacity:.21180" offset=".71760"/>
      <stop id="stop920" style="stop-color:#ffffff;stop-opacity:.15290" offset=".87840"/>
      <stop id="stop922" style="stop-color:#ffffff;stop-opacity:.15290" offset="1"/>
    </radialGradient>
    <mask id="mask924">
      <g id="g926">
        <g id="g928" clip-path="url(#clipPath906)">
          <path id="path930" style="fill:url(#radialGradient910)" d="m10.5-75.5h7.5v3.75h-7.5v-3.75z" inkscape:connector-curvature="0"/>
        </g>
      </g>
    </mask>
    <radialGradient id="radialGradient934" gradientUnits="userSpaceOnUse" cy="-73.1" cx="13.65" r="5.575">
      <stop id="stop936" style="stop-color:#fff2cd" offset="0"/>
      <stop id="stop938" style="stop-color:#f5e6b7" offset=".1608"/>
      <stop id="stop940" style="stop-color:#e6d493" offset=".46670"/>
      <stop id="stop942" style="stop-color:#ddc87c" offset=".71760"/>
      <stop id="stop944" style="stop-color:#dac474" offset=".87840"/>
      <stop id="stop946" style="stop-color:#dac474" offset="1"/>
    </radialGradient>
    <clipPath id="clipPath954">
      <path id="path956" d="m28.199 22.687 0.281-0.2c-0.668 0-0.972 0.094-0.921 0.282h0.32c0.16 0 0.266-0.028 0.32-0.082z" inkscape:connector-curvature="0"/>
    </clipPath>
    <clipPath id="clipPath962">
      <path id="path964" d="m14.25-72h2.5v1.25h-2.5v-1.25z" inkscape:connector-curvature="0"/>
    </clipPath>
    <radialGradient id="radialGradient966" gradientUnits="userSpaceOnUse" cy="-71.35" cx="15.5" r="0.775">
      <stop id="stop968" style="stop-color:#ffffff;stop-opacity:.50590" offset="0"/>
      <stop id="stop970" style="stop-color:#ffffff;stop-opacity:.43920" offset=".1608"/>
      <stop id="stop972" style="stop-color:#ffffff;stop-opacity:.29799" offset=".46670"/>
      <stop id="stop974" style="stop-color:#ffffff;stop-opacity:.21180" offset=".71760"/>
      <stop id="stop976" style="stop-color:#ffffff;stop-opacity:.15290" offset=".87840"/>
      <stop id="stop978" style="stop-color:#ffffff;stop-opacity:.15290" offset="1"/>
    </radialGradient>
    <mask id="mask980">
      <g id="g982">
        <g id="g984" clip-path="url(#clipPath962)">
          <path id="path986" style="fill:url(#radialGradient966)" d="m14.25-72h2.5v1.25h-2.5v-1.25z" inkscape:connector-curvature="0"/>
        </g>
      </g>
    </mask>
    <radialGradient id="radialGradient990" gradientUnits="userSpaceOnUse" cy="-71.35" cx="15.5" r="0.775">
      <stop id="stop992" style="stop-color:#fff2cd" offset="0"/>
      <stop id="stop994" style="stop-color:#f5e6b7" offset=".1608"/>
      <stop id="stop996" style="stop-color:#e6d493" offset=".46670"/>
      <stop id="stop998" style="stop-color:#ddc87c" offset=".71760"/>
      <stop id="stop1000" style="stop-color:#dac474" offset=".87840"/>
      <stop id="stop1002" style="stop-color:#dac474" offset="1"/>
    </radialGradient>
    <clipPath id="clipPath1010">
      <path id="path1012" d="m20.719 15.327c-0.184 0-0.84 0.028-1.957 0.082l3.718 0.239 0.321-0.161-2.082-0.16z" inkscape:connector-curvature="0"/>
    </clipPath>
    <clipPath id="clipPath1018">
      <path id="path1020" d="m3-86.165h6.25v2.6483h-6.25v-2.6483z" inkscape:connector-curvature="0"/>
    </clipPath>
    <radialGradient id="radialGradient1022" gradientUnits="userSpaceOnUse" cy="-81.6" cx="2.6997" r="12.288">
      <stop id="stop1024" style="stop-color:#ffffff" offset="0"/>
      <stop id="stop1026" style="stop-color:#ffffff;stop-opacity:.80391" offset=".14120"/>
      <stop id="stop1028" style="stop-color:#ffffff;stop-opacity:.21180" offset=".65880"/>
      <stop id="stop1030" style="stop-color:#ffffff;stop-opacity:0" offset=".99220"/>
      <stop id="stop1032" style="stop-color:#ffffff;stop-opacity:0" offset="1"/>
    </radialGradient>
    <mask id="mask1034">
      <g id="g1036">
        <g id="g1038" clip-path="url(#clipPath1018)">
          <path id="path1040" style="fill:url(#radialGradient1022)" d="m3-86.165h6.25v2.6483h-6.25v-2.6483z" inkscape:connector-curvature="0"/>
        </g>
      </g>
    </mask>
    <radialGradient id="radialGradient1044" gradientUnits="userSpaceOnUse" cy="-81.6" cx="2.6997" r="12.288">
      <stop id="stop1046" style="stop-color:#b6a07b" offset="0"/>
      <stop id="stop1048" style="stop-color:#bda77a" offset=".14120"/>
      <stop id="stop1050" style="stop-color:#d2bc76" offset=".65880"/>
      <stop id="stop1052" style="stop-color:#dac474" offset=".99220"/>
      <stop id="stop1054" style="stop-color:#dac474" offset="1"/>
    </radialGradient>
    <linearGradient id="linearGradient1070" y2="1456.7" gradientUnits="userSpaceOnUse" x2="1877.8" gradientTransform="matrix(.782 .16864 -.16864 .782 -1198.6 -1438.2)" y1="1456.7" x1="1876.5">
      <stop id="stop1072" style="stop-color:#a7a286" offset="0"/>
      <stop id="stop1074" style="stop-color:#5c5647" offset="1"/>
    </linearGradient>
    <linearGradient id="linearGradient1088" y2="-16194" gradientUnits="userSpaceOnUse" x2="160.62" gradientTransform="matrix(.00021192 -.8 .8 -.0008 12978 131.64)" y1="-16194" x1="156.84">
      <stop id="stop1090" style="stop-color:#8d8678" offset="0"/>
      <stop id="stop1092" style="stop-color:#dcd6b0" offset=".29410"/>
      <stop id="stop1094" style="stop-color:#7e7763" offset="1"/>
    </linearGradient>
    <linearGradient id="linearGradient1108" y2="-16203" gradientUnits="userSpaceOnUse" x2="160.62" gradientTransform="matrix(.00021192 -.8 .8 -.0008 12978 131.64)" y1="-16203" x1="156.85">
      <stop id="stop1110" style="stop-color:#8d8678" offset="0"/>
      <stop id="stop1112" style="stop-color:#dcd6b0" offset=".29410"/>
      <stop id="stop1114" style="stop-color:#7e7763" offset="1"/>
    </linearGradient>
    <linearGradient id="linearGradient1128" y2="1458.6" gradientUnits="userSpaceOnUse" x2="1868.9" gradientTransform="matrix(.782 .16864 -.16864 .782 -1198.6 -1438.2)" y1="1458.6" x1="1867.6">
      <stop id="stop1130" style="stop-color:#a7a286" offset="0"/>
      <stop id="stop1132" style="stop-color:#5c5647" offset="1"/>
    </linearGradient>
    <linearGradient id="linearGradient1146" y2="38.8" gradientUnits="userSpaceOnUse" x2="2.8376" gradientTransform="matrix(.8 0 0 .8 19.72 15.648)" y1="38.8" x1="-3.3374">
      <stop id="stop1148" style="stop-color:#8d8678" offset="0"/>
      <stop id="stop1150" style="stop-color:#dcd6b0" offset=".29410"/>
      <stop id="stop1152" style="stop-color:#9d9184" offset=".5686"/>
      <stop id="stop1154" style="stop-color:#7e7763" offset=".83920"/>
      <stop id="stop1156" style="stop-color:#c8b69f" offset=".96860"/>
      <stop id="stop1158" style="stop-color:#c8b69f" offset="1"/>
    </linearGradient>
    <linearGradient id="linearGradient1176" y2="13.269" gradientUnits="userSpaceOnUse" x2="2.8376" gradientTransform="matrix(.8 0 0 .8 19.72 15.648)" y1="13.269" x1="-3.3374">
      <stop id="stop1178" style="stop-color:#8d8678" offset="0"/>
      <stop id="stop1180" style="stop-color:#dcd6b0" offset=".29410"/>
      <stop id="stop1182" style="stop-color:#9d9184" offset=".5686"/>
      <stop id="stop1184" style="stop-color:#7e7763" offset=".83920"/>
      <stop id="stop1186" style="stop-color:#c8b69f" offset=".96860"/>
      <stop id="stop1188" style="stop-color:#c8b69f" offset="1"/>
    </linearGradient>
    <linearGradient id="linearGradient1202" y2="-15481" gradientUnits="userSpaceOnUse" x2="-623.27" gradientTransform="matrix(.06848 -.79704 .79704 .06848 12403 602.33)" y1="-15481" x1="-656.87">
      <stop id="stop1204" style="stop-color:#869ddb" offset="0"/>
      <stop id="stop1206" style="stop-color:#546781" offset="1"/>
    </linearGradient>
    <linearGradient id="linearGradient1222" y2="-15478" gradientUnits="userSpaceOnUse" x2="-626.63" gradientTransform="matrix(.06888 -.79704 .79704 .06888 12399 605.45)" y1="-15478" x1="-661.18">
      <stop id="stop1224" style="stop-color:#a7a178" offset="0"/>
      <stop id="stop1226" style="stop-color:#a2917d" offset=".96860"/>
      <stop id="stop1228" style="stop-color:#a2917d" offset="1"/>
    </linearGradient>
    <linearGradient id="linearGradient1242" y2="-15479" gradientUnits="userSpaceOnUse" x2="-622.88" gradientTransform="matrix(.06864 -.79704 .79704 .06864 12401 603.87)" y1="-15479" x1="-660.74">
      <stop id="stop1244" style="stop-color:#dcd6b0" offset="0"/>
      <stop id="stop1246" style="stop-color:#c8bd9f" offset=".96860"/>
      <stop id="stop1248" style="stop-color:#c8bd9f" offset="1"/>
    </linearGradient>
    <linearGradient id="linearGradient1264" y2="-15481" gradientUnits="userSpaceOnUse" x2="-620.76" gradientTransform="matrix(.06848 -.79704 .79704 .06848 12403 602.52)" y1="-15481" x1="-659.6">
      <stop id="stop1266" style="stop-color:#a7a178" offset="0"/>
      <stop id="stop1268" style="stop-color:#a2917d" offset=".96860"/>
      <stop id="stop1270" style="stop-color:#a2917d" offset="1"/>
    </linearGradient>
    <linearGradient id="linearGradient1286" y2="-15771" gradientUnits="userSpaceOnUse" x2="-374.99" gradientTransform="matrix(.04176 -.79888 .79888 .04176 12636 401.71)" y1="-15771" x1="-397.52">
      <stop id="stop1288" style="stop-color:#ebf1ff" offset="0"/>
      <stop id="stop1290" style="stop-color:#c5ccd7" offset="1"/>
    </linearGradient>
    <linearGradient id="linearGradient1304" y2="-15772" gradientUnits="userSpaceOnUse" x2="-374.99" gradientTransform="matrix(.04176 -.79888 .79888 .04176 12636 401.71)" y1="-15772" x1="-397.52">
      <stop id="stop1306" style="stop-color:#ebf1ff" offset="0"/>
      <stop id="stop1308" style="stop-color:#c5ccd7" offset="1"/>
    </linearGradient>
  </defs>
  <g id="g10" transform="matrix(1.25 0 0 -1.25 0 86.41)">
    <g id="g12">
      <g id="g14">
        <g id="g16" clip-path="url(#clipPath18)">
          <g id="g22" transform="matrix(.8 -.006 -.00272 -.36904 62.636 -36.728)">
            <g id="g52" mask="url(#mask44)">
              <path id="path68" style="fill-rule:evenodd;fill:url(#radialGradient54)" d="m26.16 15.769c-0.215-0.188-0.371-0.309-0.48-0.36-0.293-0.187-0.707-0.226-1.239-0.121-0.773 0.133-1.203 0.199-1.281 0.199l-2.519-0.078c-1.496 0-2.52 0.094-3.082 0.278-0.344 0.109-0.813 0.187-1.399 0.242-0.773 0.078-1.254 0.133-1.441 0.16-0.184 0.051-0.625 0.094-1.321 0.117-0.531 0.028-0.957 0.121-1.277 0.281-0.293 0.188-0.496 0.293-0.601 0.321-0.293 0.027-0.52 0.082-0.68 0.16-0.426 0.215-0.735 0.453-0.918 0.719-0.055 0.214-0.121 0.375-0.203 0.48-0.239 0.188-0.399 0.32-0.481 0.402-0.316 0.426-0.543 0.704-0.679 0.84h0.082c0.078-0.187 0.398-0.453 0.961-0.8 0.132-0.161 0.41-0.375 0.839-0.641 0.079-0.055 0.305-0.332 0.68-0.84 0.133-0.16 0.492-0.305 1.078-0.441l1.403-0.239c0.343-0.027 0.839-0.121 1.476-0.281l1.723-0.238c0.426-0.106 1.078-0.16 1.961-0.16 0.398 0 1.027-0.016 1.879-0.039 0.746-0.028 1.347 0 1.8 0.078 0.586 0.133 1.438 0.121 2.559-0.039 0.215-0.028 0.359-0.016 0.441 0.039 0.051 0.027 0.161 0.121 0.321 0.281 0.16 0.184 0.586 0.371 1.277 0.559 0.293 0.054 0.75 0.16 1.359 0.32 0.536 0.16 0.934 0.387 1.204 0.68 0.183 0.214 0.332 0.535 0.437 0.961 0.242 0.292 0.387 0.519 0.441 0.679l-0.039-0.64c-0.082-0.559-0.386-1.039-0.921-1.442-0.161-0.105-0.665-0.383-1.52-0.84-0.16-0.078-0.387-0.132-0.68-0.16-0.32-0.023-0.547-0.066-0.679-0.117-0.133-0.055-0.293-0.16-0.481-0.32z" inkscape:connector-curvature="0"/>
            </g>
          </g>
        </g>
      </g>
      <g id="g70">
        <g id="g72" clip-path="url(#clipPath74)">
          <g id="g78" transform="matrix(.8 -.006 -.02528 -.37952 434.74 -40.2)">
            <g id="g100" mask="url(#mask92)">
              <path id="path108" style="fill-rule:evenodd;fill:url(#radialGradient102)" d="m29.559 20.366 0.363-0.437 0.476-0.32c0.11-0.133 0.094-0.309-0.039-0.52-0.16-0.215-0.265-0.375-0.32-0.48-0.105-0.426-0.25-0.747-0.437-0.961-0.27-0.293-0.668-0.52-1.204-0.68-0.613-0.16-1.066-0.266-1.359-0.32-0.691-0.188-1.117-0.372-1.277-0.559-0.16-0.16-0.27-0.254-0.321-0.281-0.082-0.055-0.226-0.067-0.441-0.039-1.121 0.16-1.973 0.172-2.559 0.039-0.453-0.078-1.054-0.106-1.8-0.078-0.852 0.023-1.481 0.039-1.879 0.039-0.883 0-1.535 0.05-1.961 0.16l-1.723 0.238c-0.637 0.16-1.133 0.254-1.476 0.281l-1.403 0.239c-0.586 0.136-0.945 0.281-1.078 0.441-0.375 0.508-0.601 0.785-0.68 0.84-0.429 0.266-0.707 0.48-0.839 0.641-0.563 0.347-0.883 0.613-0.961 0.8 0.371 0.106 0.812 0.426 1.32 0.957 0.504 0.563 0.934 0.895 1.277 1v0.082c0.297 0.055 0.789 0.282 1.481 0.68 0.562 0.348 1.16 0.559 1.801 0.641 0.668 0.05 1.679 0.226 3.039 0.519h2.562c0.559-0.027 1.371-0.133 2.438-0.32 0.855-0.055 1.574-0.149 2.16-0.281 0.586-0.184 1.293-0.453 2.121-0.797 1.015-0.43 1.668-0.735 1.961-0.922 0.238-0.133 0.492-0.332 0.758-0.602z" inkscape:connector-curvature="0"/>
            </g>
          </g>
        </g>
      </g>
      <g id="g110">
        <g id="g112" clip-path="url(#clipPath114)">
          <g id="g118" transform="matrix(.8 0 0 -.8 15.6 -40.552)">
            <g id="g142" mask="url(#mask134)">
              <path id="path150" style="fill-rule:evenodd;fill:url(#radialGradient144)" d="m12.281 21.89 0.278-1.801c0.121-1.43 0.187-2.371 0.203-2.82v3.699c0.027 0.426 0.16 0.894 0.398 1.398 0.399 0.215 0.84 0.336 1.32 0.364-0.027-0.082-0.066-0.43-0.121-1.043-0.027-0.133-0.105-0.36-0.238-0.68-0.109-0.293-0.16-0.531-0.16-0.719-0.055-0.746-0.055-1.304 0-1.679l0.199-1.2c0-0.375 0.039-0.734 0.121-1.082l-2.082 0.36-0.238 0.082-0.199 0.359c-0.801 1.734-1.067 3.106-0.801 4.121l0.277 0.117v0.082c0.348 0.078 0.696 0.227 1.043 0.442z" inkscape:connector-curvature="0"/>
            </g>
          </g>
        </g>
      </g>
      <g id="g152">
        <g id="g154" clip-path="url(#clipPath156)">
          <g id="g160" transform="matrix(.8 0 0 -.8 15.6 -39.912)">
            <g id="g184" mask="url(#mask176)">
              <path id="path192" style="fill-rule:evenodd;fill:url(#radialGradient186)" d="m21.52 20.007c0.48-0.238 0.878-0.184 1.199 0.16-0.051-0.32-0.145-0.531-0.278-0.641-0.027 0-0.253-0.078-0.679-0.238-0.137-0.828 0-1.574 0.398-2.238l0.602-1.203-0.321-0.039c-0.453-0.078-1.054-0.106-1.8-0.078-0.852 0.023-1.481 0.039-1.879 0.039l-1.16 0.039c-0.028 0.242-0.176 0.707-0.442 1.398-0.32 0.961-0.492 1.707-0.519 2.242l-0.082 3.641 1 0.199h2.562c0.266 0 0.664-0.054 1.199-0.16-0.105-0.695-0.16-1.238-0.16-1.641 0-0.214-0.015-0.492-0.039-0.839 0.024-0.293 0.16-0.508 0.399-0.641z" inkscape:connector-curvature="0"/>
            </g>
          </g>
        </g>
      </g>
      <g id="g194">
        <g id="g196" clip-path="url(#clipPath198)">
          <g id="g202" transform="matrix(.8 0 0 -.8 15.6 -41.032)">
            <g id="g226" mask="url(#mask218)">
              <path id="path234" style="fill-rule:evenodd;fill:url(#radialGradient228)" d="m24.84 22.648-0.078-5.321c-0.16-0.879-0.254-1.386-0.282-1.519l-0.921 0.082 0.082 1c0 0.051 0.039 0.558 0.121 1.519 0 0.184-0.067 0.426-0.203 0.719-0.133 0.375-0.211 0.625-0.239 0.762 0.028 0.719 0.039 1.25 0.039 1.597 0 0.266-0.011 0.497-0.039 0.68-0.027 0.348-0.082 0.602-0.16 0.762 0.586-0.055 1.106-0.133 1.559-0.242l0.121-0.039z" inkscape:connector-curvature="0"/>
            </g>
          </g>
        </g>
      </g>
      <g id="g236">
        <g id="g238" clip-path="url(#clipPath240)">
          <g id="g244" transform="matrix(.8 0 0 -.8 15.6 -36.392)">
            <g id="g268" mask="url(#mask260)">
              <path id="path276" style="fill-rule:evenodd;fill:url(#radialGradient270)" d="m26.559 22.007 1.043-0.438-0.723-2.441c-0.078 0.188-0.16 0.773-0.238 1.762-0.055 0.238-0.082 0.613-0.082 1.117z" inkscape:connector-curvature="0"/>
            </g>
          </g>
        </g>
      </g>
      <g id="g278">
        <g id="g280" clip-path="url(#clipPath282)">
          <g id="g286" transform="matrix(.8 0 0 -.8 15.6 -43.832)">
            <g id="g310" mask="url(#mask302)">
              <path id="path318" style="fill-rule:evenodd;fill:url(#radialGradient312)" d="m29.801 20.089 0.121-0.16 0.476-0.32c0.11-0.133 0.094-0.309-0.039-0.52-0.16-0.215-0.265-0.375-0.32-0.48-0.105-0.426-0.25-0.747-0.437-0.961-0.27-0.293-0.59-0.493-0.961-0.598v0.117c-0.028 0.402-0.039 0.707-0.039 0.922-0.028 0.398-0.016 0.707 0.039 0.918l0.078 0.242v-1.082l0.043 0.199c0.078 0.188 0.265 0.403 0.558 0.641 0.188 0.242 0.348 0.602 0.481 1.082z" inkscape:connector-curvature="0"/>
            </g>
          </g>
        </g>
      </g>
      <g id="g320">
        <g id="g322" clip-path="url(#clipPath324)">
          <g id="g328" transform="matrix(.8 0 0 -.8 15.6 -43.832)">
            <g id="g352" mask="url(#mask344)">
              <path id="path360" style="fill:url(#radialGradient312);fill-rule:evenodd" d="m29.359 20.569 0.442-0.48c-0.133-0.48-0.293-0.84-0.481-1.082-0.293-0.238-0.48-0.453-0.558-0.641l-0.043-0.199v1.082l0.32 0.559c0.082 0.105 0.121 0.215 0.121 0.32 0.078 0.078 0.145 0.227 0.199 0.441z" inkscape:connector-curvature="0"/>
            </g>
          </g>
        </g>
      </g>
      <g id="g362">
        <g id="g364" clip-path="url(#clipPath366)">
          <g id="g370" transform="matrix(.8 0 0 -.8 15.6 -41.272)">
            <g id="g394" mask="url(#mask386)">
              <path id="path402" style="fill-rule:evenodd;fill:url(#radialGradient396)" d="m29.359 20.569 0.442-0.48c-0.133-0.48-0.293-0.84-0.481-1.082-0.293-0.238-0.48-0.453-0.558-0.641l-0.043-0.199v1.082l0.32 0.559c0.082 0.105 0.121 0.215 0.121 0.32 0.078 0.078 0.145 0.227 0.199 0.441z" inkscape:connector-curvature="0"/>
            </g>
          </g>
        </g>
      </g>
      <g id="g404">
        <g id="g406" clip-path="url(#clipPath408)">
          <g id="g412" transform="matrix(.8 0 0 -.8 15.6 -40.552)">
            <g id="g436" mask="url(#mask428)">
              <path id="path444" style="fill:url(#radialGradient144);fill-rule:evenodd" d="m10.961 21.249c-0.266-1.015 0-2.387 0.801-4.121l0.199-0.359c-0.375 0.05-0.652 0.172-0.84 0.359-0.375 0.508-0.601 0.785-0.68 0.84-0.429 0.266-0.707 0.48-0.839 0.641-0.563 0.347-0.883 0.613-0.961 0.8 0.371 0.106 0.773 0.387 1.199 0.84 0.508 0.531 0.879 0.867 1.121 1z" inkscape:connector-curvature="0"/>
            </g>
          </g>
        </g>
      </g>
      <g id="g446">
        <g id="g448" clip-path="url(#clipPath450)">
          <g id="g454" transform="matrix(.8 0 0 -.8 15.6 -43.352)">
            <g id="g478" mask="url(#mask470)">
              <path id="path486" style="fill-rule:evenodd;fill:url(#radialGradient480)" d="m10.961 21.249c-0.266-1.015 0-2.387 0.801-4.121l0.199-0.359c-0.375 0.05-0.652 0.172-0.84 0.359-0.375 0.508-0.601 0.785-0.68 0.84-0.429 0.266-0.707 0.48-0.839 0.641-0.563 0.347-0.883 0.613-0.961 0.8 0.371 0.106 0.773 0.387 1.199 0.84 0.508 0.531 0.879 0.867 1.121 1z" inkscape:connector-curvature="0"/>
            </g>
          </g>
        </g>
      </g>
      <g id="g488">
        <g id="g490" clip-path="url(#clipPath492)">
          <g id="g496" transform="matrix(.8 0 0 -.8 15.6 -40.552)">
            <g id="g520" mask="url(#mask512)">
              <path id="path528" style="fill:url(#radialGradient144);fill-rule:evenodd" d="m12.281 21.89 0.879 0.476c-0.238-0.504-0.371-0.972-0.398-1.398v-3.699c-0.016 0.449-0.082 1.39-0.203 2.82l-0.278 1.801z" inkscape:connector-curvature="0"/>
            </g>
          </g>
        </g>
      </g>
      <g id="g530">
        <g id="g532" clip-path="url(#clipPath534)">
          <g id="g538" transform="matrix(.8 0 0 -.8 15.6 -39.752)">
            <g id="g562" mask="url(#mask554)">
              <path id="path570" style="fill-rule:evenodd;fill:url(#radialGradient564)" d="m12.281 21.89 0.879 0.476c-0.238-0.504-0.371-0.972-0.398-1.398v-3.699c-0.016 0.449-0.082 1.39-0.203 2.82l-0.278 1.801z" inkscape:connector-curvature="0"/>
            </g>
          </g>
        </g>
      </g>
      <g id="g572">
        <g id="g574" clip-path="url(#clipPath576)">
          <g id="g580" transform="matrix(.8 0 0 -.8 15.6 -40.072)">
            <g id="g610" mask="url(#mask602)">
              <path id="path626" style="fill-rule:evenodd;fill:url(#radialGradient612)" d="m26.16 20.89c-0.027-0.188-0.027-0.442 0-0.762-0.027-0.293-0.105-0.535-0.238-0.719-0.137 0.078-0.227 0.2-0.281 0.36-0.106-0.133-0.161-0.43-0.161-0.879l-0.121-0.883c-0.078-0.504-0.281-1.254-0.597-2.238v1.718c0.078 0.586 0.117 1.293 0.117 2.122-0.027 0.96-0.039 1.679-0.039 2.16v0.879l1.68-0.598c-0.215-0.535-0.332-0.922-0.36-1.16z" inkscape:connector-curvature="0"/>
            </g>
          </g>
        </g>
      </g>
      <g id="g628">
        <g id="g630" clip-path="url(#clipPath632)">
          <g id="g636" transform="matrix(.8 0 0 -.8 15.6 -41.032)">
            <g id="g660" mask="url(#mask652)">
              <path id="path668" style="fill:url(#radialGradient228);fill-rule:evenodd" d="m24.84 21.769c0-0.481 0.015-1.2 0.039-2.16 0-0.829-0.039-1.536-0.117-2.122l0.078 4.282z" inkscape:connector-curvature="0"/>
            </g>
          </g>
        </g>
      </g>
      <g id="g670">
        <g id="g672" clip-path="url(#clipPath674)">
          <g id="g678" transform="matrix(.8 0 0 -.8 15.6 -40.072)">
            <g id="g708" mask="url(#mask700)">
              <path id="path724" style="fill:url(#radialGradient612);fill-rule:evenodd" d="m24.84 21.769c0-0.481 0.015-1.2 0.039-2.16 0-0.829-0.039-1.536-0.117-2.122l0.078 4.282z" inkscape:connector-curvature="0"/>
            </g>
          </g>
        </g>
      </g>
      <g id="g726">
        <g id="g728" clip-path="url(#clipPath730)">
          <g id="g734" transform="matrix(.8 0 0 -.8 15.6 -40.152)">
            <g id="g764" mask="url(#mask756)">
              <path id="path780" style="fill-rule:evenodd;fill:url(#radialGradient766)" d="m27.961 21.448 0.918-0.519c-0.348-0.746-0.531-1.188-0.559-1.32-0.082-0.266-0.132-0.696-0.16-1.282v1.481c-0.133 0.718-0.199 1.265-0.199 1.64z" inkscape:connector-curvature="0"/>
            </g>
          </g>
        </g>
      </g>
      <g id="g782">
        <g id="g784" clip-path="url(#clipPath786)">
          <g id="g790" transform="matrix(.8 0 0 -.8 15.6 -33.912)">
            <g id="g820" mask="url(#mask812)">
              <path id="path836" style="fill-rule:evenodd;fill:url(#radialGradient822)" d="m14.922 22.808c-0.027-0.348-0.137-0.746-0.32-1.199l-0.442-1.122c0.055 0.508 0.121 0.879 0.199 1.122l0.282 1.16 0.281 0.039z" inkscape:connector-curvature="0"/>
            </g>
          </g>
        </g>
      </g>
      <g id="g838">
        <g id="g840" clip-path="url(#clipPath842)">
          <g id="g846" transform="matrix(.8 0 0 -.8 15.6 -35.592)">
            <g id="g876" mask="url(#mask868)">
              <path id="path892" style="fill-rule:evenodd;fill:url(#radialGradient878)" d="m14.559 23.089h1.441c-0.055-0.055-0.188-0.082-0.398-0.082-0.243-0.023-0.375-0.039-0.403-0.039l-0.64-0.121c-0.664-0.184-1.094-0.332-1.278-0.438-0.722-0.425-1.16-0.679-1.32-0.761-0.535-0.266-1.027-0.426-1.481-0.481l0.52 0.481c0.16-0.051 0.375-0.012 0.641 0.121 0.132 0.078 0.32 0.215 0.558 0.398 0.242 0.188 0.629 0.414 1.16 0.68 0.243 0.16 0.641 0.242 1.2 0.242z" inkscape:connector-curvature="0"/>
            </g>
          </g>
        </g>
      </g>
      <g id="g894">
        <g id="g896" clip-path="url(#clipPath898)">
          <g id="g902" transform="matrix(.8 0 0 -.8 15.6 -37.272)">
            <g id="g932" mask="url(#mask924)">
              <path id="path948" style="fill-rule:evenodd;fill:url(#radialGradient934)" d="m29.281 21.05 0.438-0.883c-0.184 0.227-0.531 0.469-1.039 0.723l-1.481 0.758c-0.664 0.214-1.144 0.425-1.437 0.64-0.395 0.305-0.875 0.496-1.442 0.578 0.801-0.062 1.469-0.203 2-0.418 0.293-0.132 0.735-0.32 1.321-0.558 0.16-0.137 0.437-0.27 0.839-0.403 0.508-0.293 0.774-0.437 0.801-0.437z" inkscape:connector-curvature="0"/>
            </g>
          </g>
        </g>
      </g>
      <g id="g950">
        <g id="g952" clip-path="url(#clipPath954)">
          <g id="g958" transform="matrix(.8 0 0 -.8 15.6 -34.472)">
            <g id="g988" mask="url(#mask980)">
              <path id="path1004" style="fill-rule:evenodd;fill:url(#radialGradient990)" d="m28.199 22.687 0.281-0.2c-0.668 0-0.972 0.094-0.921 0.282h0.32c0.16 0 0.266-0.028 0.32-0.082z" inkscape:connector-curvature="0"/>
            </g>
          </g>
        </g>
      </g>
      <g id="g1006">
        <g id="g1008" clip-path="url(#clipPath1010)">
          <g id="g1014" transform="matrix(.8 0 0 -.3776 15.6 -16.408)">
            <g id="g1042" mask="url(#mask1034)">
              <path id="path1056" style="fill-rule:evenodd;fill:url(#radialGradient1044)" d="m20.719 15.327c-0.184 0-0.84 0.028-1.957 0.082l3.718 0.239 0.321-0.161-2.082-0.16z" inkscape:connector-curvature="0"/>
            </g>
          </g>
        </g>
      </g>
      <path id="path1058" style="fill-rule:evenodd;fill:#8a2e09;fill-opacity:0.498" d="m22.922 10.609 0.316 0.039c0.242-0.161 0.403-0.254 0.481-0.282 0.187-0.05 0.496-0.066 0.922-0.039v-0.078l0.32 0.039 0.039-0.082 0.32-0.039-0.082-0.078 0.563 0.078v-0.238l0.437 0.039c0.055-0.055 0.028-0.121-0.078-0.199l0.238 0.078c0.028-0.16-0.226-0.36-0.757-0.598l1.32 0.277c-0.133-0.105-0.227-0.183-0.281-0.238-0.133-0.082-0.172-0.148-0.121-0.199h0.363c0.078-0.188-0.32-0.414-1.203-0.68-0.106-0.027-0.641-0.254-1.598-0.679l-2.32-1.082c-0.723-0.293-1.574-0.575-2.563-0.84l0.602-0.321c0.32-0.16 0.906-0.398 1.762-0.718 0.796-0.321 1.386-0.575 1.757-0.762 0.961-0.531 2.121-1.051 3.481-1.559l-2.918 0.961c2.344-0.933 3.453-1.586 3.316-1.961l-0.797 0.039c-0.054-0.187-0.253-0.281-0.601-0.281l-0.078-0.156c-0.215-0.027-0.481 0.039-0.801 0.199 0.133-0.109 0.16-0.265 0.078-0.48-0.027-0.082-0.105-0.16-0.238-0.243-0.028-0.078-0.028-0.183 0-0.32h-0.242c0.027 0 0.109-0.066 0.242-0.199-0.215-0.023-0.508 0.016-0.879 0.121-0.375 0.106-0.656 0.16-0.844 0.16l-0.078-0.16c-0.746 0-1.172-0.039-1.281-0.121l-1.797 0.68 0.117-0.2c-0.211 0.028-0.68 0.227-1.398 0.602-0.641 0.32-1.082 0.559-1.321 0.719l-3 1.718-1.082 0.481-0.117 0.043-0.16-0.082-2.922-1.121c-1.117-0.586-2-0.973-2.641-1.16-0.078 0.054-0.078 0.109 0 0.16 0.11 0.109 0.161 0.176 0.161 0.203l-2.321-0.723c-1.304-0.426-2.133-0.613-2.476-0.558l0.199 0.398c-0.215-0.051-0.43-0.051-0.641 0 0.078 0.16 0.133 0.281 0.16 0.359-0.347 0.055-0.546 0.094-0.601 0.122-0.106 0.027-0.106 0.105 0 0.242-0.211-0.028-0.453 0-0.719 0.078-0.293 0.105-0.519 0.16-0.68 0.16l0.239 0.481-0.321 0.039v0.082l-0.32 0.078c0.082 0.027 0.176 0.082 0.281 0.16-0.078 0.082-0.199 0.105-0.359 0.082 0.238 0.051 0.398 0.117 0.48 0.199l-0.359-0.043c0.774 0.403 2.266 0.91 4.481 1.524l4.078 1.437c-0.426 0.293-0.746 0.481-0.961 0.563l-0.879 0.398c-0.348 0.106-0.613 0.199-0.801 0.281-0.32 0.133-0.492 0.254-0.519 0.36l0.402-0.082c-0.027 0.054-0.137 0.121-0.32 0.203-0.297 0.133-0.457 0.211-0.481 0.238l-1.16 0.481c-0.027 0-0.414 0.253-1.16 0.757l0.359-0.039 0.121 0.121h0.16c0.106 0.078 0.079 0.172-0.082 0.282-0.16 0.16-0.214 0.265-0.16 0.32h0.321l0.082 0.117h0.32c0.078 0.106 0.199 0.188 0.359 0.242l0.879 0.117c0.426 0.028 0.895-0.011 1.399-0.117 0.027 0.024-0.079 0.094-0.321 0.2-0.211 0.078-0.332 0.148-0.359 0.199l0.723-0.121-0.122 0.121h0.321c0.105 0.082 0.105 0.176 0 0.281 0.879-0.16 1.398-0.281 1.558-0.359l1.121-0.563-0.878 0.602 5.757-2.602h0.082c0.481 0.106 1.172 0.266 2.079 0.481 0-0.079-0.188-0.215-0.559-0.399 0.453 0.16 1.078 0.426 1.879 0.801 0.105 0.023 0.359 0.105 0.762 0.238 0.343 0.106 0.476 0.199 0.398 0.281 0.215-0.027 0.52 0.012 0.922 0.118 0.238 0.054 0.68 0.226 1.316 0.519 0.028 0 0.336 0.11 0.922 0.32 0.453 0.161 0.785 0.254 1 0.282-0.133-0.078-0.215-0.145-0.238-0.199z" inkscape:connector-curvature="0"/>
      <g id="g1060">
        <g id="g1062">
          <g id="g1068">
            <path id="path1076" style="fill-rule:evenodd;fill:url(#linearGradient1070)" d="m24.441 16.847-0.16-0.758h-0.043l0.121 3.277 0.082-0.797v-1.722z" inkscape:connector-curvature="0"/>
          </g>
        </g>
      </g>
      <g id="g1078">
        <g id="g1080">
          <g id="g1086">
            <path id="path1096" style="fill-rule:evenodd;fill:url(#linearGradient1088)" d="m22.039 19.366h2.32l-0.121-3.277-2.636-0.082 0.117 1.762 0.32 1.597z" inkscape:connector-curvature="0"/>
          </g>
        </g>
      </g>
      <g id="g1098">
        <g id="g1100">
          <g id="g1106">
            <path id="path1116" style="fill-rule:evenodd;fill:url(#linearGradient1108)" d="m16.559 16.128-2.278 0.199c0.024 0.641 0.067 1.121 0.117 1.442l0.282 1.597h2.359l-0.16-3.277-0.32 0.039z" inkscape:connector-curvature="0"/>
          </g>
        </g>
      </g>
      <g id="g1118">
        <g id="g1120">
          <g id="g1126">
            <path id="path1134" style="fill-rule:evenodd;fill:url(#linearGradient1128)" d="m17.078 16.847-0.117-0.758h-0.402v0.039l0.32-0.039 0.16 3.277 0.039-2.519z" inkscape:connector-curvature="0"/>
          </g>
        </g>
      </g>
      <g id="g1136">
        <g id="g1138">
          <g id="g1144">
            <path id="path1160" style="fill-rule:evenodd;fill:url(#linearGradient1146)" d="m17.039 43.968v6.398l0.402-0.16c0.426-0.105 1.106-0.156 2.039-0.156 1.52 0 2.36 0.105 2.52 0.316v-7.359c-0.906 0.215-2.559 0.535-4.961 0.961z" inkscape:connector-curvature="0"/>
          </g>
        </g>
      </g>
      <path id="path1162" style="fill-rule:evenodd;fill:#857d69" d="m17.039 36.89v1l0.199-0.242 1.762-0.641c1.305-0.398 2.305-0.547 3-0.438v-0.281c-0.453 0.188-1.066 0.199-1.84 0.039-0.719-0.105-1.441-0.054-2.16 0.16l-0.84 0.36-0.121 0.043zm4.961 3.16h-4.961v3.918c2.402-0.426 4.055-0.746 4.961-0.961v-2.957z" inkscape:connector-curvature="0"/>
      <path id="path1164" style="fill-rule:evenodd;fill:#696252" d="m17.039 37.89v2.16h4.961v-3.481c-0.695-0.109-1.695 0.04-3 0.438l-1.762 0.641-0.199 0.242z" inkscape:connector-curvature="0"/>
      <g id="g1166">
        <g id="g1168">
          <g id="g1174">
            <path id="path1190" style="fill-rule:evenodd;fill:url(#linearGradient1176)" d="m17.039 36.89 0.121-0.043 0.84-0.36c0.719-0.214 1.441-0.265 2.16-0.16 0.774 0.16 1.387 0.149 1.84-0.039v-20.519l-1.441-0.121c-0.426-0.028-1.012 0-1.758 0.082-0.828 0.078-1.414 0.117-1.762 0.117v21.043z" inkscape:connector-curvature="0"/>
          </g>
        </g>
      </g>
      <g id="g1192">
        <g id="g1194">
          <g id="g1200">
            <path id="path1208" style="fill-rule:evenodd;fill:url(#linearGradient1202)" d="m31.719 47.409c-0.664-1.629-1.625-3.109-2.879-4.441-2.586-2.719-5.695-4.078-9.32-4.078s-6.735 1.359-9.321 4.078c-0.765 0.816-1.406 1.676-1.918 2.582 0.125-0.215 0.258-0.422 0.399-0.621-0.399 0.801-0.719 1.691-0.961 2.68-1.36 5.144-0.707 9.546 1.961 13.199 2.398 3.281 5.613 5.105 9.64 5.48 0.985 0.106 2.614-0.066 4.879-0.519-1.199 0.453-2.359 0.734-3.48 0.84 2.187-0.161 4.176-0.868 5.961-2.122l2-1.718 0.16-0.16c2.558-2.719 3.84-5.989 3.84-9.801 0-0.985-0.078-1.946-0.239-2.879l-0.722-2.52z" inkscape:connector-curvature="0"/>
          </g>
        </g>
      </g>
      <path id="path1210" style="fill-rule:evenodd;fill:#60749a" d="m8.281 45.55-0.601 1.137-1.321 5.922v0.199c0 3.812 1.282 7.082 3.84 9.801 2.586 2.718 5.696 4.078 9.321 4.078h0.121l1.078-0.078c1.121-0.106 2.281-0.387 3.48-0.84-2.265 0.453-3.894 0.625-4.879 0.519-4.027-0.371-7.242-2.199-9.64-5.48-2.668-3.653-3.321-8.055-1.961-13.199 0.242-0.989 0.562-1.879 0.961-2.68-0.141 0.199-0.274 0.406-0.399 0.621z" inkscape:connector-curvature="0"/>
      <g id="g1212">
        <g id="g1214">
          <g id="g1220">
            <path id="path1230" style="fill-rule:evenodd;fill:url(#linearGradient1222)" d="m20.719 66.609-1.078 0.078h-0.121c-3.625 0-6.735-1.36-9.321-4.078-2.558-2.719-3.84-5.989-3.84-9.801v-0.199l1.321-5.922 0.601-1.137c0.512-0.906 1.153-1.766 1.918-2.582 2.586-2.719 5.696-4.078 9.321-4.078s6.734 1.359 9.32 4.078c1.254 1.332 2.215 2.812 2.879 4.441-0.664-1.761-1.68-3.359-3.039-4.8-2.668-2.801-5.868-4.2-9.602-4.2-3.73 0-6.933 1.399-9.598 4.2-2.64 2.773-3.96 6.132-3.96 10.078 0 3.949 1.32 7.308 3.96 10.082 2.665 2.8 5.868 4.199 9.598 4.199 2.856 0 5.387-0.828 7.602-2.481-1.785 1.254-3.774 1.961-5.961 2.122z" inkscape:connector-curvature="0"/>
          </g>
        </g>
      </g>
      <g id="g1232">
        <g id="g1234">
          <g id="g1240">
            <path id="path1250" style="fill-rule:evenodd;fill:url(#linearGradient1242)" d="m26.68 64.487c-2.215 1.653-4.746 2.481-7.602 2.481-3.73 0-6.933-1.399-9.598-4.199-2.64-2.774-3.96-6.133-3.96-10.082 0-3.946 1.32-7.305 3.96-10.078 2.665-2.801 5.868-4.2 9.598-4.2 3.734 0 6.934 1.399 9.602 4.2 1.359 1.441 2.375 3.039 3.039 4.8l0.722 2.52c0.161 0.933 0.239 1.894 0.239 2.879 0 3.812-1.282 7.082-3.84 9.801l-0.16 0.16-2 1.718zm3.761-22.961c-2.988-3.039-6.586-4.558-10.8-4.558-4.243 0-7.852 1.519-10.84 4.558-2.989 3.067-4.481 6.762-4.481 11.083 0 4.32 1.492 8.011 4.481 11.078 2.984 3.066 6.597 4.601 10.84 4.601 4.214 0 7.812-1.535 10.8-4.601 2.985-3.067 4.481-6.758 4.481-11.078 0-4.321-1.496-8.016-4.481-11.083z" inkscape:connector-curvature="0"/>
          </g>
        </g>
      </g>
      <path id="path1252" style="fill-rule:evenodd;fill:#ebe5bd" d="m5.559 46.007c-1.039 2.16-1.559 4.496-1.559 7v0.121c0 4.426 1.535 8.199 4.602 11.32 3.066 3.121 6.773 4.68 11.117 4.68 4.347 0 8.054-1.559 11.121-4.68 3.066-3.121 4.601-6.894 4.601-11.32-0.082 4.266-1.601 7.922-4.562 10.961-3.067 3.117-6.758 4.68-11.078 4.68-4.321 0-8-1.563-11.039-4.68-3.067-3.148-4.602-6.934-4.602-11.359 0-2.43 0.465-4.668 1.399-6.723z" inkscape:connector-curvature="0"/>
      <g id="g1254">
        <g id="g1256">
          <g id="g1262">
            <path id="path1272" style="fill-rule:evenodd;fill:url(#linearGradient1264)" d="m35.441 53.128v-0.398c0-4.43-1.519-8.215-4.562-11.364-3.067-3.117-6.758-4.679-11.078-4.679-4.321 0-8 1.562-11.039 4.679-1.387 1.414-2.453 2.961-3.203 4.641-0.934 2.055-1.399 4.293-1.399 6.723 0 4.425 1.535 8.211 4.602 11.359 3.039 3.117 6.718 4.68 11.039 4.68 4.32 0 8.011-1.563 11.078-4.68 2.961-3.039 4.48-6.695 4.562-10.961zm-5-11.602c2.985 3.067 4.481 6.762 4.481 11.083 0 4.32-1.496 8.011-4.481 11.078-2.988 3.066-6.586 4.601-10.8 4.601-4.243 0-7.852-1.535-10.84-4.601-2.989-3.067-4.481-6.758-4.481-11.078 0-4.321 1.492-8.016 4.481-11.083 2.984-3.039 6.597-4.558 10.84-4.558 4.214 0 7.812 1.519 10.8 4.558z" inkscape:connector-curvature="0"/>
          </g>
        </g>
      </g>
      <path id="path1274" style="fill-rule:evenodd;fill:#5b6e8c" d="m22.762 60.648-0.242 0.121-0.079 0.078c0.09-0.035 0.2-0.102 0.321-0.199zm-8.364-3.442v-0.078h-0.039l0.039 0.078zm0.481-1.359c0.027 0.027 0.066 0.054 0.121 0.082l0.039-0.281c-0.051-0.028-0.105-0.012-0.16 0.039v0.16zm0.359-0.16v0.043c0.028-0.055 0.055-0.161 0.082-0.321h-0.039l-0.043 0.278zm0.321-0.559h0.043c0.132 0 0.32 0.121 0.558 0.359l0.16 0.039 0.399 0.282 0.16 0.039c0.027 0 0.082-0.012 0.16-0.039 0.055 0.027 0.094 0.121 0.121 0.281 0.055 0.078 0.149 0.16 0.281 0.238l0.598 0.36c0.32 0.297 0.656 0.453 1 0.48l0.641 0.039 0.558-0.156c0-0.027 0.016-0.055 0.043-0.082l-0.402 0.082c-0.133 0.023-0.348 0.012-0.641-0.043-0.371-0.027-0.703-0.172-1-0.438l-0.84-0.601-0.16-0.32-0.16 0.082-0.156-0.082-0.524-0.321c-0.293-0.211-0.492-0.332-0.597-0.359-0.106 0-0.188 0.055-0.242 0.16zm5.441 0.719c0.027-0.078 0.051-0.156 0.078-0.238-0.031 0.082-0.109 0.191-0.238 0.32l-0.121 0.121c0.109-0.082 0.203-0.149 0.281-0.203zm-3.281-6.641 0.043 0.121v-0.078l-0.043-0.043zm0.242-0.398v0.16l0.238-0.281c-0.027-0.106-0.054-0.25-0.078-0.438-0.055 0.051-0.082 0.211-0.082 0.481l-0.039-0.082c-0.027 0.05-0.039 0.105-0.039 0.16zm0.559-0.399h0.082c0.32-0.027 0.636 0.012 0.957 0.117l0.043-0.078c0.023-0.027 0.078 0 0.16 0.078 0-0.183 0.05-0.253 0.16-0.199-0.027-0.027-0.067-0.039-0.121-0.039l-0.039 0.121c-0.297-0.16-0.602-0.215-0.922-0.16-0.133 0.024-0.238 0.078-0.32 0.16zm1.441-0.043c0.078 0.082 0.144 0.27 0.199 0.563 0.028-0.055 0.055-0.188 0.078-0.403 0-0.05 0.016-0.105 0.043-0.16-0.027-0.078-0.066-0.132-0.121-0.16-0.133-0.078-0.199-0.023-0.199 0.16zm0.519 0.121c0.028 0.082 0.067 0.227 0.122 0.442 0.05 0.187 0.132 0.305 0.238 0.359v-0.359c-0.028-0.055-0.039-0.106-0.039-0.16-0.055-0.243-0.094-0.387-0.121-0.442-0.106-0.133-0.172-0.121-0.2 0.039v0.121zm0.68 2.122c-0.027-0.083-0.039-0.188-0.039-0.321l0.039-0.558c0-0.27 0.012-0.657 0.039-1.161-0.078-0.027-0.121 0.04-0.121 0.2 0 0.187-0.012 0.304-0.039 0.359-0.027-0.027-0.051-0.055-0.078-0.078-0.027 0.344-0.039 0.613-0.039 0.797l-0.043 0.562c0 0.293 0.027 0.453 0.082 0.481 0.027-0.028 0.066-0.094 0.117-0.203 0.027-0.051 0.055-0.078 0.082-0.078zm2.442 9.519c0.05-0.027 0.105-0.055 0.16-0.078l0.398-0.363c0.133-0.184 0.332-0.598 0.602-1.239l0.437-1.16c0.055-0.187 0.176-0.48 0.36-0.879l0.043-0.441c0.023-0.106 0.05-0.281 0.078-0.52-0.133 0.133-0.2 0.239-0.2 0.321l-0.039-1.082-0.121 0.48c0.055-0.824 0.012-1.465-0.121-1.918-0.078-0.293-0.359-0.547-0.84-0.762-0.265-0.187-0.48-0.32-0.64-0.398-0.692-0.426-1.133-0.668-1.321-0.723l0.082 0.203-0.679-0.441c-0.188-0.133-0.293-0.227-0.321-0.281l-0.039-0.36c-0.054-0.027-0.093 0-0.121 0.082-0.027 0.051-0.054 0.094-0.082 0.118 0 0.16 0.016 0.269 0.043 0.32 0.024 0.055 0.117 0.133 0.278 0.242l0.402 0.32 0.32 0.161c-0.054-0.137-0.093-0.204-0.121-0.204 0.133 0.028 0.586 0.254 1.36 0.68l0.64 0.442c0.453 0.187 0.719 0.425 0.801 0.718 0.133 0.481 0.172 1.121 0.117 1.922l0.121-0.48c0.055 0.48 0.067 0.84 0.039 1.082 0.028-0.082 0.094-0.188 0.203-0.321l-0.121 0.957c-0.16 0.403-0.281 0.708-0.359 0.922l-0.402 1.121c-0.399 0.797-0.614 1.211-0.637 1.239l-0.043 0.082-0.277 0.238zm-5.563-15.879c0.082-0.055 0.188-0.094 0.32-0.121 0.243-0.16 0.403-0.227 0.481-0.199v-0.082c-0.106 0.054-0.188 0.094-0.238 0.121-0.297 0.082-0.481 0.172-0.563 0.281zm3 2.277c0.293-0.105 0.508-0.359 0.641-0.757 0.16-0.508 0.148-0.961-0.039-1.36-0.028-0.082-0.2-0.308-0.52-0.679-0.055-0.11-0.16-0.188-0.32-0.243-0.16-0.027-0.293-0.05-0.403-0.078l-0.636-0.16c-0.082-0.055-0.121-0.242-0.121-0.562-0.133-0.024-0.215 0.027-0.243 0.16-0.023 0.269 0.016 0.441 0.122 0.519l0.64 0.16c0.426 0.11 0.668 0.215 0.719 0.321 0.266 0.293 0.441 0.519 0.519 0.679 0.188 0.43 0.204 0.895 0.043 1.403-0.109 0.265-0.242 0.465-0.402 0.597z" inkscape:connector-curvature="0"/>
      <g id="g1276">
        <g id="g1278">
          <g id="g1284">
            <path id="path1292" style="fill-rule:evenodd;fill:url(#linearGradient1286)" d="m22.441 60.847 0.079-0.078 0.242-0.121 0.758-0.442 0.082-0.078 0.277-0.238 0.043-0.082c0.023-0.028 0.238-0.442 0.637-1.239l0.402-1.121c0.078-0.214 0.199-0.519 0.359-0.922l0.121-0.957c-0.109 0.133-0.175 0.239-0.203 0.321 0.028-0.242 0.016-0.602-0.039-1.082l-0.121 0.48c0.055-0.801 0.016-1.441-0.117-1.922-0.082-0.293-0.348-0.531-0.801-0.718l-0.64-0.442c-0.774-0.426-1.227-0.652-1.36-0.68 0.028 0 0.067 0.067 0.121 0.204l-0.32-0.161-0.402-0.32c-0.161-0.109-0.25-0.187-0.278-0.242-0.027-0.051-0.043-0.16-0.043-0.32v-0.078c-0.023-0.028-0.05-0.028-0.078 0-0.027 0-0.055 0.027-0.082 0.078-0.051 0.109-0.09 0.175-0.117 0.203-0.055-0.028-0.082-0.188-0.082-0.481l0.043-0.562c0-0.184 0.012-0.453 0.039-0.797v-0.363c-0.082-0.024-0.121 0.054-0.121 0.242v0.359c-0.106-0.054-0.188-0.172-0.238-0.359-0.055-0.215-0.094-0.36-0.122-0.442h-0.039c-0.082-0.105-0.136-0.144-0.16-0.121-0.027 0.055-0.043 0.11-0.043 0.16-0.023 0.215-0.05 0.348-0.078 0.403-0.055-0.293-0.121-0.481-0.199-0.563 0-0.023-0.016-0.039-0.039-0.039-0.11-0.054-0.16 0.016-0.16 0.199-0.082-0.078-0.137-0.105-0.16-0.078l-0.043 0.078c-0.321-0.105-0.637-0.144-0.957-0.117h-0.082c-0.079 0.024-0.172 0.094-0.282 0.2l-0.039 0.078-0.238 0.281v-0.281c0-0.133-0.027-0.227-0.082-0.278-0.051 0.024-0.078 0.172-0.078 0.438l-0.039-0.039v0.519l-0.043-0.121-0.078-0.199c-0.028 0.027-0.039 0.187-0.039 0.48l-0.082-0.16-0.161 1.68c-0.132 0.934-0.027 1.547 0.321 1.84l-0.16-0.117c0.214 0.238 0.359 0.41 0.441 0.519l-0.16-0.043c0.105 0.11 0.344 0.215 0.719 0.32l0.878 0.282c0.27 0.133 0.629 0.386 1.082 0.761 0.188 0.133 0.305 0.266 0.36 0.399l0.082 0.16-0.043 0.16c-0.184 0.399-0.32 0.696-0.399 0.879 0.051-0.027 0.145-0.078 0.282-0.16l0.078-0.078c0.129-0.129 0.211-0.238 0.238-0.32-0.027 0.082-0.051 0.16-0.078 0.238-0.055 0.137-0.148 0.293-0.281 0.48-0.211 0.266-0.36 0.481-0.438 0.641-0.027 0.027-0.043 0.055-0.043 0.082l-0.558 0.156-0.641-0.039c-0.344-0.027-0.68-0.183-1-0.48l-0.598-0.36c-0.136-0.078-0.226-0.16-0.281-0.238-0.027-0.16-0.066-0.254-0.121-0.281-0.078 0.027-0.133 0.039-0.16 0.039l-0.16-0.039-0.399-0.282-0.16-0.039c-0.238-0.238-0.426-0.359-0.558-0.359h-0.043c-0.133 0-0.211 0.066-0.239 0.199v0.082c-0.027 0.16-0.054 0.266-0.082 0.321v-0.043l-0.199-0.161v0.122l-0.039 0.281c-0.055-0.028-0.094-0.055-0.121-0.082l-0.039-0.039c-0.078-0.028-0.145-0.012-0.199 0.039 0.027 0.242 0.027 0.402 0 0.48-0.028-0.078-0.082-0.121-0.161-0.121-0.054 0.028-0.066 0.11-0.039 0.242 0.024 0.133 0.039 0.227 0.039 0.282-0.027-0.11-0.093-0.188-0.199-0.243 0 0.161 0.039 0.375 0.117 0.641v0.078c0 0.055 0.016 0.11 0.043 0.16-0.082-0.078-0.187-0.117-0.32-0.117l0.238 0.481-0.16-0.082c0.055 0.132 0.215 0.375 0.481 0.718l0.48 0.723 1.52 1.398 0.082-0.039c0.05 0.161 0.172 0.266 0.359 0.321 0.106 0.027 0.277 0.066 0.52 0.121-0.403 0-0.641-0.016-0.719-0.043 0.211 0.082 0.73 0.187 1.558 0.32l3.399 0.039c0.109-0.051 0.266-0.156 0.48-0.316l0.039-0.043h0.043z" inkscape:connector-curvature="0"/>
          </g>
        </g>
      </g>
      <g id="g1294">
        <g id="g1296">
          <g id="g1302">
            <path id="path1310" style="fill-rule:evenodd;fill:url(#linearGradient1304)" d="m19.398 42.847c-0.16-0.078-0.238 0.054-0.238 0.402 0 0.133-0.015 0.238-0.039 0.32-0.027 0.051-0.043 0.106-0.043 0.161 0 0.023-0.012 0.039-0.039 0.039l-0.039-0.121c-0.105 0-0.16 0.066-0.16 0.199v0.082c-0.078-0.028-0.238 0.039-0.481 0.199-0.132 0.027-0.238 0.066-0.32 0.121-0.16 0.051-0.25 0.106-0.277 0.16-0.082 0.078-0.121 0.266-0.121 0.559-0.055 0.348-0.055 0.586 0 0.719 0 0.082 0.078 0.242 0.238 0.48 0.055 0.16 0.226 0.336 0.519 0.52 0.137 0.136 0.254 0.203 0.364 0.203l0.558 0.039c0.239 0.051 0.547 0 0.918-0.16l0.242-0.039c0.215 0 0.399-0.067 0.559-0.204 0.16-0.132 0.293-0.332 0.402-0.597 0.161-0.508 0.145-0.973-0.043-1.403-0.078-0.16-0.253-0.386-0.519-0.679-0.051-0.106-0.293-0.211-0.719-0.321l-0.64-0.16c-0.106-0.078-0.145-0.25-0.122-0.519z" inkscape:connector-curvature="0"/>
          </g>
        </g>
      </g>
    </g>
  </g>
<metadata><rdf:RDF><cc:Work><dc:format>image/svg+xml</dc:format><dc:type rdf:resource="http://purl.org/dc/dcmitype/StillImage"/><cc:license rdf:resource="http://creativecommons.org/licenses/publicdomain/"/><dc:publisher><cc:Agent rdf:about="http://openclipart.org/"><dc:title>Openclipart</dc:title></cc:Agent></dc:publisher></cc:Work><cc:License rdf:about="http://creativecommons.org/licenses/publicdomain/"><cc:permits rdf:resource="http://creativecommons.org/ns#Reproduction"/><cc:permits rdf:resource="http://creativecommons.org/ns#Distribution"/><cc:permits rdf:resource="http://creativecommons.org/ns#DerivativeWorks"/></cc:License></rdf:RDF></metadata><script xmlns=""/></svg>